<?xml version="1.0" encoding="iso-8859-1"?>
<!-- Generator: Adobe Illustrator 19.0.0, SVG Export Plug-In . SVG Version: 6.00 Build 0)  -->
<svg version="1.1" id="Capa_1" xmlns="http://www.w3.org/2000/svg" xmlns:xlink="http://www.w3.org/1999/xlink" x="0px" y="0px"
	 viewBox="0 0 512 512" style="enable-background:new 0 0 512 512;" xml:space="preserve">
<g>

			<path d="M488.34,282.579c-26.552-8.546-57.318-32.076-82.94-63.299l22.325-53.797c2.571-6.195,1.741-13.124-2.22-18.537
				c-3.96-5.413-10.311-8.3-16.998-7.722l-51.959,4.487c-0.393,0.034-0.755-0.166-0.939-0.506l-20.655-38.153
				c-2.713-5.011-7.477-8.516-13.067-9.614c-5.593-1.1-11.327,0.342-15.735,3.954l-33.265,27.26
				c-0.389,0.318-0.966,0.287-1.316-0.077L236.91,90.643c-3.748-3.886-9.005-6.004-14.388-5.807
				c-5.396,0.195-10.473,2.686-13.931,6.833l-27.813,33.359c-0.302,0.359-0.815,0.453-1.225,0.224l-37.6-21.197
				c-5.38-3.033-11.921-3.265-17.501-0.619c-5.58,2.645-9.542,7.856-10.6,13.939l-6.909,39.756c-0.091,0.521-0.597,0.874-1.11,0.795
				l-3.114-0.492c-4.1-0.645-7.933,2.147-8.578,6.239c-0.646,4.091,2.147,7.932,6.238,8.578l3.114,0.492
				c8.572,1.354,16.743-4.498,18.229-13.042l6.91-39.757c0.311-1.791,1.54-2.62,2.245-2.954c0.705-0.335,2.124-0.762,3.71,0.131
				l37.6,21.196c6.716,3.787,15.174,2.237,20.112-3.686l27.813-33.359c1.003-1.203,2.28-1.423,2.952-1.448
				c0.661-0.026,1.962,0.103,3.049,1.231l34.658,35.93c5.733,5.946,15.231,6.501,21.621,1.267l33.266-27.26
				c1.277-1.048,2.634-0.975,3.335-0.838c0.696,0.137,1.982,0.584,2.769,2.038l20.656,38.154c3.028,5.593,9.063,8.859,15.42,8.308
				l51.959-4.487c2.032-0.17,3.2,1.086,3.603,1.637c0.403,0.551,1.256,2.036,0.471,3.928l-23.205,55.915
				c-31.138,22.291-45.795,67.234-46.481,102.514c-0.08,4.141,3.212,7.563,7.353,7.644c0.05,0.001,0.099,0.001,0.148,0.001
				c4.074,0,7.416-3.263,7.496-7.354c0.681-35.043,15.353-69.836,36.345-87.586c11.458,13.684,24.218,26.323,37.219,36.831
				c13.349,10.79,26.562,19.068,39.424,24.733c-6.133,7.76-9.273,16.718-8.964,26.064c0.337,10.205,4.79,19.968,12.488,27.872
				c-17.257,10.287-47.969,19.003-102.255,24.192c-3.434-4.233-6.316-9.329-8.572-15.224c-1.479-3.869-5.813-5.806-9.685-4.325
				c-3.869,1.48-5.806,5.816-4.325,9.684c1.553,4.059,3.374,7.83,5.423,11.326c-3.454,0.26-6.993,0.508-10.617,0.742
				c-0.259,0.003-0.52,0.02-0.781,0.05c-28.827,1.844-63.057,2.863-103.705,2.863c-57.786,0-99.617-3.658-129.147-11.4
				c-0.267-0.085-0.536-0.156-0.807-0.21c-6.764-1.804-12.876-3.826-18.376-6.071c-0.168-0.068-0.339-0.131-0.511-0.187
				l-72.94-23.768c-1.882-0.613-2.479-2.161-2.648-2.798c-0.17-0.637-0.421-2.277,0.908-3.745l24.459-27.019
				c5.092-5.625,5.509-14.132,0.991-20.231L15.79,243.389c-1.075-1.451-0.836-2.905-0.598-3.643
				c0.238-0.738,0.896-2.057,2.617-2.604l34.647-11.009c7.566-2.403,12.254-10.115,10.903-17.936l-6.45-37.412
				c-0.248-1.441,0.279-2.498,0.766-3.131c0.695-0.904,1.722-1.479,2.817-1.577c4.126-0.37,7.17-4.015,6.8-8.14
				c-0.37-4.125-4.026-7.163-8.14-6.799c-5.257,0.471-10.13,3.16-13.37,7.376c-3.271,4.255-4.568,9.518-3.654,14.82l6.45,37.413
				c0.082,0.476-0.203,0.944-0.664,1.09l-34.647,11.009c-5.845,1.857-10.46,6.45-12.347,12.286
				c-1.887,5.835-0.832,12.261,2.819,17.188l27.314,36.855c0.275,0.372,0.25,0.89-0.061,1.233L6.535,317.427
				c-4.349,4.802-5.949,11.407-4.284,17.668s6.337,11.197,12.497,13.204l72.684,23.686c3.703,1.503,7.659,2.908,11.859,4.223
				c-1.264,3.871-1.938,7.93-1.938,12.056c0,21.456,17.456,38.913,38.913,38.913h29.47c20.836,0,37.898-16.463,38.866-37.065
				c11.459,0.374,23.628,0.563,36.576,0.563c1.978,0,3.938-0.003,5.888-0.008c1.246,20.341,18.182,36.51,38.832,36.51h29.47
				c21.457,0,38.913-17.456,38.913-38.913c0-0.353-0.024-0.704-0.034-1.057c76.103-5.515,116.813-17.365,137.755-33.795
				c0.558-0.34,1.076-0.754,1.54-1.245c11.288-9.42,16.383-20.289,18.107-32.292C514.019,303.375,504.217,287.689,488.34,282.579z
				 M165.734,412.176h-29.47c-13.186,0-23.913-10.727-23.913-23.913c0-2.79,0.49-5.534,1.427-8.123
				c20.187,4.73,45.17,7.812,75.836,9.356C188.972,402.111,178.507,412.176,165.734,412.176z M315.366,412.176h-29.47
				c-12.404,0-22.63-9.493-23.799-21.596c28.846-0.262,54.455-1.074,77.178-2.398c0,0.027,0.003,0.054,0.003,0.081
				C339.278,401.449,328.551,412.176,315.366,412.176z M496.8,317.741c-0.936,6.515-3.398,13.063-9.205,19.292
				c-5.805-5.449-9.167-12.158-9.395-19.035c-0.237-7.15,2.816-13.898,8.854-19.717C493.955,302.036,497.954,309.714,496.8,317.741z
				"/>
			<path d="M260.748,234.099l33.266-27.26c1.278-1.048,2.639-0.976,3.334-0.838c0.697,0.137,1.983,0.583,2.77,2.037l20.656,38.153
				c1.358,2.508,3.938,3.931,6.603,3.931c1.205,0,2.429-0.291,3.564-0.906c3.642-1.972,4.997-6.523,3.025-10.166l-20.655-38.153
				c-2.714-5.011-7.477-8.515-13.068-9.614c-5.593-1.1-11.327,0.342-15.734,3.954l-33.266,27.26
				c-3.204,2.626-3.673,7.351-1.047,10.555C252.817,236.256,257.545,236.722,260.748,234.099z"/>
			<path d="M170.229,231.526l-37.601-21.198c-5.379-3.032-11.92-3.264-17.499-0.619c-5.58,2.645-9.543,7.855-10.602,13.941
				l-6.909,39.757c-0.709,4.081,2.024,7.964,6.105,8.673c0.434,0.076,0.866,0.112,1.293,0.112c3.578,0,6.747-2.571,7.381-6.217
				l6.908-39.756c0.313-1.792,1.542-2.621,2.248-2.955c0.706-0.334,2.125-0.761,3.708,0.131l37.602,21.198
				c3.608,2.035,8.182,0.758,10.216-2.85C175.115,238.134,173.838,233.56,170.229,231.526z"/>
			<path d="M404.057,302.176c0-3.778,3.074-6.852,6.853-6.852c3.778,0,6.852,3.074,6.852,6.852c0,4.142,3.357,7.5,7.5,7.5
				c4.143,0,7.5-3.358,7.5-7.5c0-12.049-9.803-21.852-21.853-21.852c-12.05,0-21.854,9.803-21.854,21.852c0,4.142,3.357,7.5,7.5,7.5
				S404.057,306.319,404.057,302.176z"/>
			<path d="M171.114,304.611l20.318,30.148c3.428,5.086,9.135,8.222,15.266,8.389c0.172,0.004,0.344,0.007,0.516,0.007
				c5.941,0,11.587-2.798,15.182-7.55l23.137-30.584c2.499-3.304,1.847-8.007-1.457-10.506c-3.302-2.498-8.007-1.846-10.506,1.456
				l-23.137,30.585c-1.089,1.439-2.55,1.621-3.326,1.598c-0.775-0.021-2.226-0.28-3.235-1.778l-20.317-30.147
				c-2.316-3.436-6.979-4.344-10.411-2.028C169.708,296.514,168.799,301.176,171.114,304.611z"/>
</g>
</svg>
